<mxfile host="app.diagrams.net" modified="2023-12-13T04:13:26.719Z" agent="Mozilla/5.0 (Windows NT 10.0; Win64; x64) AppleWebKit/537.36 (KHTML, like Gecko) Chrome/120.0.0.0 Safari/537.36" etag="-FR5i-X7UJbKZFjtKpCC" version="22.1.8" type="device">
  <diagram name="Página-1" id="_XrwZ30x4RaDxff93kol">
    <mxGraphModel dx="1467" dy="860" grid="1" gridSize="10" guides="1" tooltips="1" connect="1" arrows="1" fold="1" page="1" pageScale="1" pageWidth="827" pageHeight="1169" math="0" shadow="0">
      <root>
        <mxCell id="0" />
        <mxCell id="1" parent="0" />
        <mxCell id="z5d4uO3TwQ2tIqtIXE2f-4" value="" style="ellipse;whiteSpace=wrap;html=1;aspect=fixed;fillColor=#000000;" parent="1" vertex="1">
          <mxGeometry x="356" y="200" width="50" height="50" as="geometry" />
        </mxCell>
        <mxCell id="z5d4uO3TwQ2tIqtIXE2f-7" value="" style="rounded=1;whiteSpace=wrap;html=1;" parent="1" vertex="1">
          <mxGeometry x="321" y="300" width="120" height="60" as="geometry" />
        </mxCell>
        <mxCell id="z5d4uO3TwQ2tIqtIXE2f-8" value="agendar&lt;br&gt;consulta" style="text;html=1;align=center;verticalAlign=middle;resizable=0;points=[];autosize=1;strokeColor=none;fillColor=none;" parent="1" vertex="1">
          <mxGeometry x="346" y="310" width="70" height="40" as="geometry" />
        </mxCell>
        <mxCell id="z5d4uO3TwQ2tIqtIXE2f-11" value="" style="endArrow=classic;html=1;rounded=0;entryX=0.5;entryY=0;entryDx=0;entryDy=0;" parent="1" source="z5d4uO3TwQ2tIqtIXE2f-4" target="z5d4uO3TwQ2tIqtIXE2f-7" edge="1">
          <mxGeometry width="50" height="50" relative="1" as="geometry">
            <mxPoint x="223.5" y="230" as="sourcePoint" />
            <mxPoint x="243.5" y="180" as="targetPoint" />
          </mxGeometry>
        </mxCell>
        <mxCell id="z5d4uO3TwQ2tIqtIXE2f-22" value="" style="endArrow=classic;html=1;exitX=0.5;exitY=1;exitDx=0;exitDy=0;entryX=0.5;entryY=0;entryDx=0;entryDy=0;rounded=1;" parent="1" source="z5d4uO3TwQ2tIqtIXE2f-7" target="z5d4uO3TwQ2tIqtIXE2f-19" edge="1">
          <mxGeometry width="50" height="50" relative="1" as="geometry">
            <mxPoint x="322" y="370" as="sourcePoint" />
            <mxPoint x="306" y="420" as="targetPoint" />
            <Array as="points">
              <mxPoint x="381" y="370" />
            </Array>
          </mxGeometry>
        </mxCell>
        <mxCell id="Hq4klHdjxrten84HXC2g-2" style="edgeStyle=orthogonalEdgeStyle;rounded=1;orthogonalLoop=1;jettySize=auto;html=1;exitX=1;exitY=0.5;exitDx=0;exitDy=0;entryX=0.5;entryY=0;entryDx=0;entryDy=0;" edge="1" parent="1" source="Hq4klHdjxrten84HXC2g-12" target="z5d4uO3TwQ2tIqtIXE2f-24">
          <mxGeometry relative="1" as="geometry">
            <mxPoint x="436" y="580" as="targetPoint" />
            <mxPoint x="131" y="510" as="sourcePoint" />
          </mxGeometry>
        </mxCell>
        <mxCell id="Hq4klHdjxrten84HXC2g-4" value="" style="group" vertex="1" connectable="0" parent="1">
          <mxGeometry x="416" y="550" width="130" height="60" as="geometry" />
        </mxCell>
        <mxCell id="z5d4uO3TwQ2tIqtIXE2f-24" value="" style="rounded=1;whiteSpace=wrap;html=1;" parent="Hq4klHdjxrten84HXC2g-4" vertex="1">
          <mxGeometry width="130" height="60" as="geometry" />
        </mxCell>
        <mxCell id="Hq4klHdjxrten84HXC2g-1" value="Encontrar sala&lt;br&gt;disponível" style="text;html=1;align=center;verticalAlign=middle;resizable=0;points=[];autosize=1;strokeColor=none;fillColor=none;" vertex="1" parent="Hq4klHdjxrten84HXC2g-4">
          <mxGeometry x="15" y="10" width="100" height="40" as="geometry" />
        </mxCell>
        <mxCell id="Hq4klHdjxrten84HXC2g-11" value="" style="group" vertex="1" connectable="0" parent="1">
          <mxGeometry x="306" y="410" width="150" height="60" as="geometry" />
        </mxCell>
        <mxCell id="z5d4uO3TwQ2tIqtIXE2f-19" value="" style="rounded=1;whiteSpace=wrap;html=1;" parent="Hq4klHdjxrten84HXC2g-11" vertex="1">
          <mxGeometry x="10" width="130" height="60" as="geometry" />
        </mxCell>
        <mxCell id="z5d4uO3TwQ2tIqtIXE2f-20" value="Confirmar Atendimento&lt;br&gt;médico" style="text;html=1;align=center;verticalAlign=middle;resizable=0;points=[];autosize=1;strokeColor=none;fillColor=none;" parent="Hq4klHdjxrten84HXC2g-11" vertex="1">
          <mxGeometry y="10" width="150" height="40" as="geometry" />
        </mxCell>
        <mxCell id="Hq4klHdjxrten84HXC2g-13" value="" style="edgeStyle=orthogonalEdgeStyle;rounded=0;orthogonalLoop=1;jettySize=auto;html=1;exitX=0.5;exitY=1;exitDx=0;exitDy=0;entryX=0.5;entryY=0;entryDx=0;entryDy=0;" edge="1" parent="1" source="z5d4uO3TwQ2tIqtIXE2f-19" target="Hq4klHdjxrten84HXC2g-12">
          <mxGeometry relative="1" as="geometry">
            <mxPoint x="481" y="550" as="targetPoint" />
            <mxPoint x="381" y="470" as="sourcePoint" />
          </mxGeometry>
        </mxCell>
        <mxCell id="Hq4klHdjxrten84HXC2g-12" value="" style="rhombus;whiteSpace=wrap;html=1;" vertex="1" parent="1">
          <mxGeometry x="343.5" y="490" width="80" height="30" as="geometry" />
        </mxCell>
        <mxCell id="Hq4klHdjxrten84HXC2g-18" value="" style="group" vertex="1" connectable="0" parent="1">
          <mxGeometry x="210" y="620" width="120" height="60" as="geometry" />
        </mxCell>
        <mxCell id="Hq4klHdjxrten84HXC2g-14" style="edgeStyle=orthogonalEdgeStyle;rounded=1;orthogonalLoop=1;jettySize=auto;html=1;" edge="1" parent="Hq4klHdjxrten84HXC2g-18" source="Hq4klHdjxrten84HXC2g-12">
          <mxGeometry relative="1" as="geometry">
            <mxPoint x="59" as="targetPoint" />
          </mxGeometry>
        </mxCell>
        <mxCell id="Hq4klHdjxrten84HXC2g-15" value="" style="rounded=1;whiteSpace=wrap;html=1;" vertex="1" parent="Hq4klHdjxrten84HXC2g-18">
          <mxGeometry width="120" height="60" as="geometry" />
        </mxCell>
        <mxCell id="Hq4klHdjxrten84HXC2g-17" value="Cancelar&lt;br&gt;agendamento" style="text;html=1;align=center;verticalAlign=middle;resizable=0;points=[];autosize=1;strokeColor=none;fillColor=none;" vertex="1" parent="Hq4klHdjxrten84HXC2g-18">
          <mxGeometry x="10" y="10" width="100" height="40" as="geometry" />
        </mxCell>
        <mxCell id="Hq4klHdjxrten84HXC2g-22" value="" style="group" vertex="1" connectable="0" parent="1">
          <mxGeometry x="416" y="721" width="130" height="60" as="geometry" />
        </mxCell>
        <mxCell id="Hq4klHdjxrten84HXC2g-20" value="" style="rounded=1;whiteSpace=wrap;html=1;" vertex="1" parent="Hq4klHdjxrten84HXC2g-22">
          <mxGeometry width="130" height="60" as="geometry" />
        </mxCell>
        <mxCell id="Hq4klHdjxrten84HXC2g-21" value="Confirmar&lt;br&gt;nova consulta" style="text;html=1;align=center;verticalAlign=middle;resizable=0;points=[];autosize=1;strokeColor=none;fillColor=none;" vertex="1" parent="Hq4klHdjxrten84HXC2g-22">
          <mxGeometry x="15" y="10" width="100" height="40" as="geometry" />
        </mxCell>
        <mxCell id="Hq4klHdjxrten84HXC2g-23" style="edgeStyle=orthogonalEdgeStyle;rounded=1;orthogonalLoop=1;jettySize=auto;html=1;entryX=0;entryY=0.5;entryDx=0;entryDy=0;exitX=0.5;exitY=1;exitDx=0;exitDy=0;" edge="1" parent="1" source="Hq4klHdjxrten84HXC2g-15" target="Hq4klHdjxrten84HXC2g-25">
          <mxGeometry relative="1" as="geometry">
            <mxPoint x="277" y="770" as="targetPoint" />
          </mxGeometry>
        </mxCell>
        <mxCell id="Hq4klHdjxrten84HXC2g-24" style="edgeStyle=orthogonalEdgeStyle;rounded=1;orthogonalLoop=1;jettySize=auto;html=1;exitX=0.5;exitY=1;exitDx=0;exitDy=0;entryX=1;entryY=0.5;entryDx=0;entryDy=0;" edge="1" parent="1" source="Hq4klHdjxrten84HXC2g-20" target="Hq4klHdjxrten84HXC2g-25">
          <mxGeometry relative="1" as="geometry">
            <mxPoint x="406" y="741" as="targetPoint" />
            <Array as="points">
              <mxPoint x="481" y="831" />
              <mxPoint x="409" y="831" />
            </Array>
          </mxGeometry>
        </mxCell>
        <mxCell id="Hq4klHdjxrten84HXC2g-27" value="[data e hora disponíveis]" style="text;html=1;align=center;verticalAlign=middle;resizable=0;points=[];autosize=1;strokeColor=none;fillColor=none;" vertex="1" parent="1">
          <mxGeometry x="466" y="480" width="150" height="30" as="geometry" />
        </mxCell>
        <mxCell id="Hq4klHdjxrten84HXC2g-28" value="[else]" style="text;html=1;align=center;verticalAlign=middle;resizable=0;points=[];autosize=1;strokeColor=none;fillColor=none;" vertex="1" parent="1">
          <mxGeometry x="236" y="480" width="50" height="30" as="geometry" />
        </mxCell>
        <mxCell id="Hq4klHdjxrten84HXC2g-29" value="" style="group" vertex="1" connectable="0" parent="1">
          <mxGeometry x="346" y="801" width="62.5" height="62.5" as="geometry" />
        </mxCell>
        <mxCell id="Hq4klHdjxrten84HXC2g-25" value="" style="ellipse;whiteSpace=wrap;html=1;aspect=fixed;fillColor=#FFFFFF;" vertex="1" parent="Hq4klHdjxrten84HXC2g-29">
          <mxGeometry width="62.5" height="62.5" as="geometry" />
        </mxCell>
        <mxCell id="Hq4klHdjxrten84HXC2g-26" value="" style="ellipse;whiteSpace=wrap;html=1;aspect=fixed;fillColor=#000000;" vertex="1" parent="Hq4klHdjxrten84HXC2g-29">
          <mxGeometry x="6.25" y="6.25" width="50" height="50" as="geometry" />
        </mxCell>
        <mxCell id="Hq4klHdjxrten84HXC2g-32" style="edgeStyle=orthogonalEdgeStyle;rounded=0;orthogonalLoop=1;jettySize=auto;html=1;entryX=0.5;entryY=0;entryDx=0;entryDy=0;" edge="1" parent="1" source="Hq4klHdjxrten84HXC2g-30" target="Hq4klHdjxrten84HXC2g-20">
          <mxGeometry relative="1" as="geometry">
            <mxPoint x="586" y="690" as="targetPoint" />
          </mxGeometry>
        </mxCell>
        <mxCell id="Hq4klHdjxrten84HXC2g-33" style="edgeStyle=orthogonalEdgeStyle;rounded=0;orthogonalLoop=1;jettySize=auto;html=1;entryX=1;entryY=0.5;entryDx=0;entryDy=0;" edge="1" parent="1" source="Hq4klHdjxrten84HXC2g-30" target="Hq4klHdjxrten84HXC2g-15">
          <mxGeometry relative="1" as="geometry">
            <Array as="points">
              <mxPoint x="330" y="650" />
              <mxPoint x="330" y="650" />
            </Array>
          </mxGeometry>
        </mxCell>
        <mxCell id="Hq4klHdjxrten84HXC2g-30" value="" style="rhombus;whiteSpace=wrap;html=1;" vertex="1" parent="1">
          <mxGeometry x="441" y="635" width="80" height="30" as="geometry" />
        </mxCell>
        <mxCell id="Hq4klHdjxrten84HXC2g-19" style="edgeStyle=orthogonalEdgeStyle;rounded=0;orthogonalLoop=1;jettySize=auto;html=1;exitX=0.5;exitY=1;exitDx=0;exitDy=0;entryX=0.5;entryY=0;entryDx=0;entryDy=0;" edge="1" parent="1" source="z5d4uO3TwQ2tIqtIXE2f-24" target="Hq4klHdjxrten84HXC2g-30">
          <mxGeometry relative="1" as="geometry">
            <mxPoint x="481" y="650" as="targetPoint" />
          </mxGeometry>
        </mxCell>
        <mxCell id="Hq4klHdjxrten84HXC2g-34" value="[else]" style="text;html=1;align=center;verticalAlign=middle;resizable=0;points=[];autosize=1;strokeColor=none;fillColor=none;" vertex="1" parent="1">
          <mxGeometry x="396" y="620" width="50" height="30" as="geometry" />
        </mxCell>
        <mxCell id="Hq4klHdjxrten84HXC2g-35" value="&lt;span style=&quot;color: rgb(0, 0, 0); font-family: Helvetica; font-size: 12px; font-style: normal; font-variant-ligatures: normal; font-variant-caps: normal; font-weight: 400; letter-spacing: normal; orphans: 2; text-align: center; text-indent: 0px; text-transform: none; widows: 2; word-spacing: 0px; -webkit-text-stroke-width: 0px; background-color: rgb(251, 251, 251); text-decoration-thickness: initial; text-decoration-style: initial; text-decoration-color: initial; float: none; display: inline !important;&quot;&gt;[sala desocupada]&lt;/span&gt;" style="text;whiteSpace=wrap;html=1;" vertex="1" parent="1">
          <mxGeometry x="523" y="625" width="160" height="40" as="geometry" />
        </mxCell>
      </root>
    </mxGraphModel>
  </diagram>
</mxfile>
